<svg width="20" height="6" viewBox="0 0 20 6" fill="none" xmlns="http://www.w3.org/2000/svg">
<path d="M14.6666 3.00002C14.6666 4.28335 15.7166 5.33335 17 5.33335C18.2833 5.33335 19.3333 4.28335 19.3333 3.00002C19.3333 1.71669 18.2833 0.666687 17 0.666687C15.7166 0.666687 14.6666 1.71669 14.6666 3.00002ZM12.3333 3.00002C12.3333 1.71669 11.2833 0.666687 9.99998 0.666687C8.71665 0.666687 7.66665 1.71669 7.66665 3.00002C7.66665 4.28335 8.71665 5.33335 9.99998 5.33335C11.2833 5.33335 12.3333 4.28335 12.3333 3.00002ZM5.33331 3.00002C5.33331 1.71669 4.28331 0.666686 2.99998 0.666686C1.71665 0.666686 0.666647 1.71669 0.666647 3.00002C0.666647 4.28335 1.71665 5.33335 2.99998 5.33335C4.28331 5.33335 5.33331 4.28335 5.33331 3.00002Z" fill="black"/>
</svg>
