<svg width="163" height="24" viewBox="0 0 163 24" fill="none" xmlns="http://www.w3.org/2000/svg">
<path d="M96.795 15.498C98.7163 15.498 100.274 13.9393 100.274 12.0165C100.274 10.0937 98.7163 8.53499 96.795 8.53499C94.8737 8.53499 93.3162 10.0937 93.3162 12.0165C93.3162 13.9393 94.8737 15.498 96.795 15.498Z" fill="#CDDC36"/>
<path d="M84.788 11.1465L90.2737 5.65649H86.5611C85.541 7.31877 84.9331 9.20114 84.788 11.1465Z" fill="#DAE233"/>
<path d="M95.9587 0C93.9447 0.127315 91.9978 0.773184 90.3066 1.875V5.658L95.9587 0Z" fill="#DAE233"/>
<path d="M108.769 11.1465L103.283 5.65649H106.996C108.03 7.31208 108.64 9.1981 108.769 11.1465Z" fill="#DAE233"/>
<path d="M97.6314 -3.8147e-06C99.6453 0.127378 101.592 0.773242 103.283 1.875V5.658L97.6314 -3.8147e-06Z" fill="#DAE233"/>
<path d="M90.3066 12.786H84.821C84.9502 14.7344 85.5594 16.6205 86.5941 18.276H90.3066V12.786Z" fill="#DAE233"/>
<path d="M103.318 12.786H108.804C108.674 14.7344 108.065 16.6204 107.03 18.276H103.318V12.786Z" fill="#DAE233"/>
<path d="M95.9587 5.5905L90.4131 11.1405H84.7881L95.9587 -0.00600433V5.5905Z" fill="#46B746"/>
<path d="M97.6313 23.9655C99.6561 23.8934 101.623 23.2683 103.318 22.158V12.786L97.6313 18.477V23.9655Z" fill="#46B746"/>
<path d="M95.9257 18.444L90.3066 12.8205V22.1925C92.0031 23.2733 93.9503 23.8961 95.9587 24V18.45L95.9257 18.444Z" fill="#46B746"/>
<path d="M97.6313 5.59051L103.177 11.1405H108.796L97.6313 0V5.59051Z" fill="#46B746"/>
<path d="M17.689 22.6215C17.5054 22.6381 17.3218 22.5905 17.1693 22.4869C17.0168 22.3832 16.9049 22.2299 16.8527 22.053L14.3047 15.1245H4.18169L1.70715 22.053C1.64716 22.225 1.53345 22.3732 1.38284 22.4756C1.23224 22.578 1.05271 22.6291 0.87081 22.6215C0.72458 22.6203 0.580924 22.5829 0.452704 22.5125C0.324485 22.4422 0.215704 22.3411 0.136102 22.2183C0.0565001 22.0955 0.00856208 21.9549 -0.00341983 21.8091C-0.0154017 21.6632 0.00894695 21.5166 0.0674453 21.3825L6.62326 3.27302C6.75927 2.67422 7.09517 2.13971 7.57555 1.75766C8.05593 1.37562 8.65209 1.16887 9.26567 1.17152C9.87822 1.17278 10.4731 1.37722 10.9572 1.75286C11.4412 2.12849 11.7873 2.65413 11.9411 3.24752L18.5358 21.39C18.5707 21.4868 18.5933 21.5876 18.6033 21.69C18.5981 21.9326 18.5006 22.1641 18.3307 22.3372C18.1608 22.5103 17.9313 22.612 17.689 22.6215V22.6215ZM4.84567 13.35H13.6422L10.1635 3.60902C10.1236 3.39741 10.0127 3.20577 9.84918 3.06584C9.68564 2.9259 9.47924 2.84604 9.26417 2.83952C8.86449 2.83952 8.56473 3.10753 8.36489 3.64353L4.84567 13.35Z" fill="#27A365"/>
<path d="M24.5161 3.21302H17.9573C17.8389 3.21998 17.7202 3.20266 17.6087 3.16209C17.4972 3.12152 17.3951 3.05855 17.3088 2.97708C17.2225 2.89561 17.1537 2.79734 17.1067 2.6883C17.0597 2.57927 17.0354 2.46176 17.0354 2.34301C17.0354 2.22426 17.0597 2.10678 17.1067 1.99774C17.1537 1.88871 17.2225 1.79043 17.3088 1.70896C17.3951 1.62749 17.4972 1.56453 17.6087 1.52396C17.7202 1.48338 17.8389 1.46607 17.9573 1.47303H32.7072C32.9377 1.47303 33.1588 1.56469 33.3219 1.72785C33.4849 1.891 33.5765 2.11227 33.5765 2.34301C33.5765 2.57375 33.4849 2.79504 33.3219 2.9582C33.1588 3.12136 32.9377 3.21302 32.7072 3.21302H26.2563V21.8235C26.2563 21.9378 26.2338 22.0509 26.1901 22.1565C26.1464 22.262 26.0824 22.3579 26.0016 22.4387C25.9209 22.5195 25.8251 22.5836 25.7196 22.6273C25.6141 22.671 25.5011 22.6935 25.3869 22.6935C25.2728 22.6935 25.1597 22.671 25.0543 22.6273C24.9488 22.5836 24.853 22.5195 24.7722 22.4387C24.6915 22.3579 24.6275 22.262 24.5838 22.1565C24.5401 22.0509 24.5176 21.9378 24.5176 21.8235L24.5161 3.21302Z" fill="#27A365"/>
<path d="M51.6057 15.498C51.61 16.4726 51.4165 17.4379 51.037 18.3354C50.6575 19.233 50.0999 20.044 49.398 20.7195C48.6442 21.4663 47.7437 22.0483 46.7535 22.4286C45.7633 22.809 44.7049 22.9794 43.6455 22.929C42.5347 22.9521 41.4304 22.7539 40.3968 22.346C39.3632 21.9381 38.4209 21.3286 37.6248 20.553C35.9975 18.9564 35.0301 16.8053 34.9149 14.5275C34.7811 12.8903 34.7811 11.2448 34.9149 9.60754C35.0308 7.34955 35.9994 5.21992 37.6248 3.64954C38.4163 2.86533 39.357 2.24794 40.3912 1.83391C41.4253 1.41987 42.5319 1.21759 43.6455 1.23902C45.251 1.19502 46.8323 1.63828 48.1813 2.51053C49.5304 3.38278 50.5842 4.64319 51.204 6.12604C51.2556 6.26308 51.2735 6.41047 51.2564 6.55588C51.2393 6.70129 51.1877 6.84048 51.1058 6.9618C51.0239 7.08313 50.9141 7.18306 50.7857 7.25322C50.6573 7.32337 50.514 7.3617 50.3677 7.36502C50.1849 7.37718 50.0033 7.32784 49.8518 7.22483C49.7002 7.12182 49.5875 6.97106 49.5314 6.79653C49.0303 5.6566 48.2045 4.6898 47.1574 4.01696C46.1103 3.34412 44.8882 2.99508 43.644 3.01352C42.7784 3.00048 41.9188 3.1595 41.1151 3.48135C40.3113 3.80321 39.5794 4.2815 38.9617 4.88852C37.6582 6.11349 36.8689 7.78873 36.7539 9.57454C36.5867 11.2439 36.5867 12.9257 36.7539 14.595C36.8711 16.3827 37.6453 18.0637 38.9272 19.314C39.5514 19.9215 40.2892 20.3997 41.0983 20.7215C41.9074 21.0432 42.772 21.2021 43.6425 21.189C45.2601 21.2597 46.846 20.725 48.091 19.689C48.6589 19.204 49.1102 18.5969 49.4112 17.9131C49.7122 17.2293 49.8553 16.4863 49.8296 15.7395V13.389H44.8131C44.5825 13.389 44.3614 13.2974 44.1984 13.1342C44.0354 12.9711 43.9438 12.7498 43.9438 12.519C43.9438 12.2883 44.0354 12.067 44.1984 11.9038C44.3614 11.7407 44.5825 11.649 44.8131 11.649H49.93C50.1492 11.628 50.3702 11.6545 50.5782 11.7269C50.7861 11.7992 50.9759 11.9156 51.1348 12.0681C51.2936 12.2207 51.4176 12.4057 51.4984 12.6107C51.5791 12.8156 51.6147 13.0356 51.6027 13.2555L51.6057 15.498Z" fill="#27A365"/>
<path d="M57.1603 21.8911C57.1692 22.0267 57.1495 22.1627 57.1027 22.2904C57.0559 22.418 56.983 22.5344 56.8886 22.6322C56.7941 22.7299 56.6803 22.8069 56.5545 22.858C56.4286 22.9091 56.2934 22.9333 56.1576 22.929C56.0234 22.9277 55.8908 22.8997 55.7675 22.8466C55.6442 22.7935 55.5326 22.7164 55.4394 22.6199C55.3461 22.5233 55.2729 22.4092 55.2241 22.2841C55.1752 22.1589 55.1517 22.0254 55.1549 21.8911V20.2515C55.0545 18.912 57.2292 18.912 57.1618 20.2515L57.1603 21.8911Z" fill="#27A365"/>
<path d="M58.0641 2.44354C58.0205 2.3095 58.01 2.16687 58.0337 2.02789C58.0573 1.88891 58.1144 1.75777 58.1999 1.64575C58.2855 1.53373 58.3969 1.4442 58.5247 1.38485C58.6525 1.3255 58.7927 1.29812 58.9334 1.30506C59.0348 1.29455 59.1373 1.30455 59.2347 1.33449C59.3322 1.36443 59.4226 1.41369 59.5006 1.47933C59.5787 1.54497 59.6427 1.62565 59.689 1.71657C59.7352 1.80748 59.7627 1.90678 59.7698 2.00855L64.0174 21.0886C64.0174 21.3226 64.2512 21.2566 64.3172 21.0886L69.1329 2.88004C69.1995 2.44653 69.4244 2.05317 69.7641 1.77607C70.1039 1.49898 70.5342 1.35786 70.9719 1.38004C71.4081 1.36415 71.8352 1.50757 72.1736 1.78356C72.512 2.05954 72.7385 2.44925 72.811 2.88004L77.5262 21.123C77.5937 21.291 77.826 21.357 77.826 21.123L82.1411 2.07305C82.1594 1.85756 82.26 1.65742 82.4218 1.51414C82.5837 1.37086 82.7945 1.29544 83.0104 1.30355C83.1524 1.28876 83.2957 1.31139 83.4262 1.36919C83.5567 1.42699 83.6699 1.51794 83.7544 1.63302C83.839 1.74811 83.892 1.88334 83.9082 2.02526C83.9244 2.16718 83.9032 2.31086 83.8467 2.44205L79.5002 21.4546C79.4068 21.864 79.1772 22.2296 78.8491 22.4915C78.521 22.7533 78.1138 22.8959 77.6941 22.8959C77.2744 22.8959 76.8672 22.7533 76.5391 22.4915C76.211 22.2296 75.9814 21.864 75.888 21.4546L71.0723 3.21155C71.0723 3.17177 71.0565 3.13362 71.0284 3.10549C71.0003 3.07736 70.9622 3.06154 70.9225 3.06154C70.8827 3.06154 70.8446 3.07736 70.8165 3.10549C70.7884 3.13362 70.7726 3.17177 70.7726 3.21155L65.8894 21.4546C65.796 21.864 65.5665 22.2296 65.2384 22.4915C64.9102 22.7533 64.503 22.8959 64.0834 22.8959C63.6637 22.8959 63.2565 22.7533 62.9283 22.4915C62.6002 22.2296 62.3707 21.864 62.2773 21.4546L58.0641 2.44354Z" fill="#5C5D5D"/>
<path d="M125.893 22.761C125.759 22.7552 125.628 22.7226 125.508 22.6652C125.387 22.6077 125.279 22.5265 125.19 22.4265L119.237 14.9625C119.065 14.6633 118.816 14.4155 118.516 14.2449C118.216 14.0742 117.876 13.9869 117.531 13.992H113.316V21.858C113.307 22.0887 113.213 22.3078 113.053 22.4738C112.893 22.6397 112.677 22.7409 112.447 22.758C112.215 22.7462 111.996 22.6468 111.835 22.4797C111.674 22.3126 111.582 22.0904 111.578 21.858V3.213C111.568 2.98171 111.606 2.75088 111.69 2.53515C111.774 2.31941 111.902 2.12351 112.065 1.95987C112.229 1.79624 112.425 1.66846 112.641 1.58465C112.856 1.50083 113.087 1.46282 113.318 1.47302H119.439C121.19 1.38663 122.906 1.98718 124.222 3.14702C124.846 3.74327 125.333 4.46763 125.65 5.27033C125.968 6.07303 126.108 6.935 126.061 7.797C126.061 11.3115 123.987 13.287 120.515 13.755L126.602 21.3195C126.722 21.4837 126.782 21.6848 126.77 21.888C126.774 22.0041 126.754 22.1198 126.711 22.2278C126.668 22.3359 126.604 22.4339 126.522 22.5159C126.439 22.5978 126.341 22.6619 126.233 22.7041C126.125 22.7462 126.009 22.7656 125.893 22.761V22.761ZM113.351 12.2175H118.97C122.549 12.2175 124.321 10.7445 124.321 7.7325C124.321 4.9545 122.615 3.213 119.405 3.213H113.351V12.2175Z" fill="#5C5D5D"/>
<path d="M129.673 2.2425C129.673 2.01176 129.765 1.79049 129.928 1.62733C130.091 1.46417 130.312 1.37252 130.542 1.37252C130.773 1.37252 130.994 1.46417 131.157 1.62733C131.32 1.79049 131.412 2.01176 131.412 2.2425V20.82H141.981C142.216 20.8313 142.438 20.9297 142.605 21.0961C142.771 21.2625 142.869 21.4849 142.881 21.72C142.869 21.9521 142.769 22.1711 142.602 22.3326C142.436 22.4941 142.213 22.5861 141.981 22.59H131.446C131.211 22.6 130.976 22.5609 130.756 22.4753C130.536 22.3896 130.337 22.2592 130.17 22.0924C130.004 21.9256 129.873 21.726 129.788 21.5062C129.702 21.2864 129.663 21.0512 129.673 20.8155V2.2425Z" fill="#5C5D5D"/>
<path d="M148.035 22.626C147.809 22.6386 147.583 22.6028 147.373 22.521C147.162 22.4392 146.971 22.3133 146.812 22.1517C146.654 21.9901 146.532 21.7966 146.454 21.584C146.377 21.3714 146.345 21.1447 146.362 20.919V3.14548C146.345 2.9198 146.377 2.69308 146.454 2.48049C146.532 2.2679 146.654 2.07434 146.812 1.91275C146.971 1.75116 147.162 1.62526 147.373 1.54347C147.583 1.46168 147.809 1.42589 148.035 1.43848H153.257C154.483 1.357 155.713 1.53546 156.866 1.96221C158.018 2.38896 159.068 3.05439 159.946 3.91499C161.595 5.67546 162.515 7.99588 162.521 10.4085C162.588 11.512 162.588 12.6185 162.521 13.722C162.484 16.1277 161.553 18.4333 159.909 20.1885C159.027 21.0323 157.981 21.6848 156.835 22.1053C155.69 22.5257 154.47 22.705 153.252 22.632H148.035V22.626ZM160.775 10.341C160.508 5.85598 158.065 3.21149 153.217 3.21149H148.133V20.8185H153.217C158.067 20.8185 160.541 18.141 160.775 13.689C160.843 12.5746 160.844 11.457 160.778 10.3425L160.775 10.341Z" fill="#5C5D5D"/>
<path d="M90.3007 22.2V12.8205L95.9122 18.45H95.9452V24C93.9399 23.8981 91.9952 23.278 90.3007 22.2V22.2ZM97.6149 18.4845L103.292 12.7935V22.1655C101.6 23.2755 99.6368 23.9006 97.6149 23.973V18.4845ZM103.292 18.2835V12.786H108.771C108.641 14.734 108.033 16.6199 107 18.276L103.292 18.2835ZM86.5926 18.2835C85.5585 16.6252 84.9504 14.7366 84.8225 12.786H90.3007V18.276L86.5926 18.2835ZM93.3073 12.0165C93.3085 11.3294 93.5132 10.658 93.8955 10.0873C94.2778 9.5165 94.8206 9.07197 95.4552 8.80984C96.0899 8.54771 96.788 8.47973 97.4612 8.61451C98.1345 8.74929 98.7527 9.08078 99.2378 9.56707C99.7228 10.0534 100.053 10.6727 100.187 11.3467C100.32 12.0207 100.251 12.7192 99.9879 13.3539C99.7249 13.9886 99.2797 14.5311 98.7088 14.9127C98.1378 15.2943 97.4666 15.498 96.78 15.498C96.3236 15.4976 95.8717 15.4072 95.4502 15.2321C95.0286 15.0569 94.6457 14.8003 94.3232 14.477C94.0007 14.1538 93.745 13.7701 93.5707 13.3479C93.3964 12.9257 93.3069 12.4733 93.3073 12.0165V12.0165ZM103.161 11.1465L97.6149 5.5965V0C99.6265 0.127176 101.571 0.773109 103.259 1.875V5.64L103.276 5.6565H106.972C107.998 7.30233 108.605 9.17515 108.739 11.1105L108.771 11.1465H103.161ZM84.7895 11.1465L84.83 11.1C84.9807 9.1712 85.5863 7.30566 86.5971 5.6565H90.2842L90.3007 5.64V1.875C91.989 0.773109 93.9336 0.127176 95.9452 0V5.5905L90.3996 11.1405L84.7895 11.1465Z" fill="url(#paint0_linear_1_8)"/>
<defs>
<linearGradient id="paint0_linear_1_8" x1="84.7895" y1="10.464" x2="96.7907" y2="23.9906" gradientUnits="userSpaceOnUse">
<stop stop-color="#00A854"/>
<stop offset="1" stop-color="#004D25"/>
</linearGradient>
</defs>
</svg>
