<svg width="14" height="14" viewBox="0 0 14 14" fill="none" xmlns="http://www.w3.org/2000/svg">
<path d="M6.33337 8.99998H7.66671V10.3333H6.33337V8.99998ZM6.33337 3.66665H7.66671V7.66665H6.33337V3.66665ZM6.99337 0.333313C3.31337 0.333313 0.333374 3.31998 0.333374 6.99998C0.333374 10.68 3.31337 13.6666 6.99337 13.6666C10.68 13.6666 13.6667 10.68 13.6667 6.99998C13.6667 3.31998 10.68 0.333313 6.99337 0.333313ZM7.00004 12.3333C4.05337 12.3333 1.66671 9.94665 1.66671 6.99998C1.66671 4.05331 4.05337 1.66665 7.00004 1.66665C9.94671 1.66665 12.3334 4.05331 12.3334 6.99998C12.3334 9.94665 9.94671 12.3333 7.00004 12.3333Z" fill="black"/>
</svg>
